<?xml version="1.0" encoding="utf-8"?>
<!-- Generator: Adobe Illustrator 16.0.0, SVG Export Plug-In . SVG Version: 6.00 Build 0)  -->
<!DOCTYPE svg PUBLIC "-//W3C//DTD SVG 1.1//EN" "http://www.w3.org/Graphics/SVG/1.1/DTD/svg11.dtd">
<svg version="1.1" id="Layer_1" xmlns="http://www.w3.org/2000/svg" xmlns:xlink="http://www.w3.org/1999/xlink" x="0px" y="0px"
	 width="500px" height="160px" viewBox="5 20 500 160" enable-background="new 5 20 500 160" xml:space="preserve">
<g>
	<path fill="#FFFFFF" d="M273.234,26.957c0,8,0,16,0,24c-6.55,0.677-24.976-1.495-28.373,1.92c-2.944,2.96-1.146,8.701-1.681,14.4
		c8.01,0.052,13.01,0.302,19.92,0c2.303-0.101,4.649-2.846,6.479-3.841c14.396-7.829,44.008-7.486,59.521,0
		c9.442,4.559,15.713,12.334,16.799,23.761c1.113,11.692,0.24,25.825,0.24,40.079c0,13.262-2.193,24.408-8.16,32.4
		c-5.937,7.949-13.045,13.01-24.238,16.08c-10.658,2.924-26.328,3.865-36.961,1.68c-10.547-2.168-19.465-6.793-24.48-15.84
		c-7.349-13.26-5-35.438,4.08-44.16c6.557-6.299,18.496-10.861,30-12.238c5.695-0.684,11.971-1.367,18.24-2.881
		c6.037-1.457,14.752-4.66,12.24-12.959c-2.717-8.982-23.441-9.206-32.641-4.801c-2.045,0.98-3.029,2.987-4.56,4.08
		c-12.375,0.122-25.086-0.276-36.481,0.24c0,29.122,0,58.241,0,87.362c-9.92,0-19.84,0-29.76,0c1.088-35.521-1.429-82.082,0-120.242
		c0.729-19.485,9.896-28.848,29.52-30C249.715,25.6,266.871,26.459,273.234,26.957z M297.422,124.395
		c-6.659,1.473-14.479,2.713-18,6.961c-5.235,6.316-3.262,18.18,2.88,21.602c5.539,3.088,13.118,2.205,18.721,0.479
		c14.014-4.313,17.973-15.854,16.801-35.277c-0.16,0-0.32,0-0.48,0C311.746,120.762,304.558,122.822,297.422,124.395z"/>
	<path fill="#FFFFFF" d="M114.061,90.078c3.564-20.041,17.61-30.677,39.12-32.16c23.043-1.589,42.77,2.993,51.36,15.84
		c6.784,10.146,4.56,30.157,4.56,47.52c0,10.516-0.099,22.557-3.359,30.721c-5.629,14.09-19.688,23.371-37.2,25.439
		c-19.505,2.303-38.836,1.285-49.681-10.801c-10.048-11.199-10.675-37.986,0-48.719c6.547-6.582,18.488-11.285,30.48-12.721
		c5.86-0.703,12.229-1.252,18.721-2.881c5.777-1.449,13.809-4.553,12-12.48c-2.042-8.946-22.868-10.067-31.44-5.52
		c-2.681,1.422-3.942,3.53-5.761,5.76C133.261,90.078,123.662,90.078,114.061,90.078z M160.621,124.158
		c-6.33,1.357-14.889,3.109-18.24,7.197c-4.763,5.811-3.333,17.238,1.92,20.883c2.538,1.76,6.104,2.457,9.12,2.639
		c19.616,1.188,30.135-13.135,27.359-36.719c0.002-0.137-0.193-0.273-0.239,0C174.71,120.891,168.185,122.533,160.621,124.158z"/>
	<path fill="#FFFFFF" d="M480.055,27.158c-7.356,1.58-17.307,3.617-21.202,8.368c-5.535,6.752-3.873,20.038,2.231,24.272
		c2.951,2.045,7.096,2.855,10.603,3.068c22.801,1.382,35.028-15.27,31.803-42.684c0.002-0.155-0.226-0.316-0.279,0
		C496.433,23.358,488.846,25.269,480.055,27.158z"/>
	<path fill="#FFFFFF" d="M446.701,96.077c-9.705-0.09-28.455-0.086-28.455-0.086c-1.203-7.464-3.818-10.056-9.598-12.708
		c-4.8-2.201-10.91-2.435-16.091-1.931c-2.619,0.255-5.477,0.899-7.776,2.244c-1.99,1.164-4.701,4.448-4.32,8.4
		c0.479,4.968,8.289,7.534,13.438,9.122c6.363,1.961,12.064,3.111,18.24,4.316c10.398,2.031,23.396,6.686,30.24,12.723
		c6.498,5.729,9.037,14.777,8.16,26.16c-0.982,12.76-8.174,21.484-17.52,26.879c-9.662,5.576-22.894,7.201-37.199,7.199
		c-28.205,0-47.982-10.631-48-40.559c9.92,0,19.84,0,29.76,0c-0.086,13.512,13.453,18.912,27.84,17.279
		c7.604-0.863,15.752-4.344,14.64-12.24c-0.816-5.809-9.089-8.133-14.64-9.602c-18.811-4.967-41.418-7.736-50.641-21.84
		c-2.717-4.154-3.939-8.066-4.32-12.719c-1.98-24.248,16.027-39.142,40.08-40.8C423.223,55.664,444.344,67.405,446.701,96.077z"/>
	<path fill="#FFFFFF" d="M484.584,175.418c0-24.957,0-54.252,0-81.497c0.008-0.425,0.01-0.844,0-1.255c0-9.293,0-18.334,0-26.867
		c-0.016,0.176-0.07,0.313-0.24,0.338c-14.166,0.821-27.012,0.407-29.76-10.8c-0.1-0.41-0.176-0.843-0.24-1.288
		c0,24.911,0.002,11.146,0.002,26.106c-0.235,0.057-0.227,0.317-0.207,0.587c0,16.041,0,32.083,0,48.123
		c-0.014,5.508-0.016,10.969,0,15.93c0,10.703,0,21.406,0,32.109c10.08,0,20.16,0,30.24,0c0-0.26,0-0.523,0-0.783
		C484.613,176.053,484.604,175.74,484.584,175.418z"/>
	<path fill="#FFFFFF" d="M454.221,61.038c0-0.127,0-0.254,0-0.382C454.211,60.771,454.213,60.901,454.221,61.038z"/>
	<circle fill="#FFFFFF" cx="69.191" cy="139.08" r="5"/>
	<path fill="#FFFFFF" stroke="#000000" stroke-linecap="round" d="M13.026,235.904"/>
	<path fill="#FFFFFF" d="M107.782,116.998c0-20.626-1.586-37.661-13.68-46.8c-9.2-6.954-24.668-12.502-41.28-11.28
		c-13.346,0.981-27.875,7.09-35.04,14.16c-10.346,10.207-11.04,27.071-11.04,46.559c0,19.119,0,38.037,0,57.602
		c10.16,0,20.32,0,30.48,0c0-21.463,0-43.002,0-64.801c0-7.582-0.44-14.614,2.16-19.68c6.122-11.924,26.164-12.271,34.32-2.64
		c4.169,4.923,4.08,11.78,4.08,20.88c0,13.379,0,25.674,0,38.879c0,4.982,0.144,20.502,0.21,27.369h30.359
		C108.284,158.076,107.782,135.619,107.782,116.998z"/>
</g>
</svg>
